<mxfile host="Electron" modified="2023-12-17T08:13:15.777Z" agent="Mozilla/5.0 (Windows NT 10.0; Win64; x64) AppleWebKit/537.36 (KHTML, like Gecko) draw.io/22.1.2 Chrome/114.0.5735.289 Electron/25.9.4 Safari/537.36" etag="W6kIN1uC1gjOe2HyvuWc" version="22.1.2" type="device">
  <diagram name="Page-1" id="iZJN9yuS_rRJ-HF5QTP2">
    <mxGraphModel dx="863" dy="512" grid="1" gridSize="10" guides="1" tooltips="1" connect="1" arrows="1" fold="1" page="1" pageScale="1" pageWidth="850" pageHeight="1100" math="0" shadow="0">
      <root>
        <mxCell id="0" />
        <mxCell id="1" parent="0" />
        <mxCell id="2d9SfI0o8_fkQWdDgzP_-81" value="" style="rounded=0;whiteSpace=wrap;html=1;fontFamily=Courier New;shadow=1;" vertex="1" parent="1">
          <mxGeometry x="260" y="550" width="70" height="40" as="geometry" />
        </mxCell>
        <mxCell id="2d9SfI0o8_fkQWdDgzP_-82" value="" style="rounded=0;whiteSpace=wrap;html=1;fontFamily=Courier New;shadow=1;" vertex="1" parent="1">
          <mxGeometry x="350" y="550" width="70" height="40" as="geometry" />
        </mxCell>
        <mxCell id="2d9SfI0o8_fkQWdDgzP_-83" value="" style="rounded=0;whiteSpace=wrap;html=1;fontFamily=Courier New;shadow=1;" vertex="1" parent="1">
          <mxGeometry x="440" y="550" width="70" height="40" as="geometry" />
        </mxCell>
        <mxCell id="2d9SfI0o8_fkQWdDgzP_-84" value="" style="rounded=0;whiteSpace=wrap;html=1;fontFamily=Courier New;shadow=1;" vertex="1" parent="1">
          <mxGeometry x="530" y="550" width="70" height="40" as="geometry" />
        </mxCell>
        <mxCell id="2d9SfI0o8_fkQWdDgzP_-85" value="" style="rounded=0;whiteSpace=wrap;html=1;fontFamily=Courier New;shadow=1;" vertex="1" parent="1">
          <mxGeometry x="620" y="550" width="70" height="40" as="geometry" />
        </mxCell>
        <mxCell id="2d9SfI0o8_fkQWdDgzP_-76" value="" style="rounded=0;whiteSpace=wrap;html=1;fontFamily=Courier New;shadow=1;" vertex="1" parent="1">
          <mxGeometry x="260" y="370" width="70" height="140" as="geometry" />
        </mxCell>
        <mxCell id="2d9SfI0o8_fkQWdDgzP_-77" value="" style="rounded=0;whiteSpace=wrap;html=1;fontFamily=Courier New;shadow=1;" vertex="1" parent="1">
          <mxGeometry x="350" y="470" width="70" height="40" as="geometry" />
        </mxCell>
        <mxCell id="2d9SfI0o8_fkQWdDgzP_-78" value="" style="rounded=0;whiteSpace=wrap;html=1;fontFamily=Courier New;shadow=1;" vertex="1" parent="1">
          <mxGeometry x="440" y="470" width="70" height="40" as="geometry" />
        </mxCell>
        <mxCell id="2d9SfI0o8_fkQWdDgzP_-79" value="" style="rounded=0;whiteSpace=wrap;html=1;fontFamily=Courier New;shadow=1;" vertex="1" parent="1">
          <mxGeometry x="530" y="470" width="70" height="40" as="geometry" />
        </mxCell>
        <mxCell id="2d9SfI0o8_fkQWdDgzP_-80" value="" style="rounded=0;whiteSpace=wrap;html=1;fontFamily=Courier New;shadow=1;" vertex="1" parent="1">
          <mxGeometry x="620" y="470" width="70" height="40" as="geometry" />
        </mxCell>
        <mxCell id="2d9SfI0o8_fkQWdDgzP_-75" value="" style="rounded=0;whiteSpace=wrap;html=1;fontFamily=Courier New;shadow=1;" vertex="1" parent="1">
          <mxGeometry x="170" y="210" width="70" height="320" as="geometry" />
        </mxCell>
        <mxCell id="2d9SfI0o8_fkQWdDgzP_-1" value="r0" style="rounded=0;whiteSpace=wrap;html=1;fontFamily=Courier New;" vertex="1" parent="1">
          <mxGeometry x="170" y="210" width="70" height="20" as="geometry" />
        </mxCell>
        <mxCell id="2d9SfI0o8_fkQWdDgzP_-2" value="r1" style="rounded=0;whiteSpace=wrap;html=1;fontFamily=Courier New;" vertex="1" parent="1">
          <mxGeometry x="170" y="230" width="70" height="20" as="geometry" />
        </mxCell>
        <mxCell id="2d9SfI0o8_fkQWdDgzP_-3" value="r2" style="rounded=0;whiteSpace=wrap;html=1;fontFamily=Courier New;" vertex="1" parent="1">
          <mxGeometry x="170" y="250" width="70" height="20" as="geometry" />
        </mxCell>
        <mxCell id="2d9SfI0o8_fkQWdDgzP_-4" value="r3" style="rounded=0;whiteSpace=wrap;html=1;fontFamily=Courier New;" vertex="1" parent="1">
          <mxGeometry x="170" y="270" width="70" height="20" as="geometry" />
        </mxCell>
        <mxCell id="2d9SfI0o8_fkQWdDgzP_-5" value="r4" style="rounded=0;whiteSpace=wrap;html=1;fontFamily=Courier New;" vertex="1" parent="1">
          <mxGeometry x="170" y="290" width="70" height="20" as="geometry" />
        </mxCell>
        <mxCell id="2d9SfI0o8_fkQWdDgzP_-6" value="r5" style="rounded=0;whiteSpace=wrap;html=1;fontFamily=Courier New;" vertex="1" parent="1">
          <mxGeometry x="170" y="310" width="70" height="20" as="geometry" />
        </mxCell>
        <mxCell id="2d9SfI0o8_fkQWdDgzP_-7" value="r6" style="rounded=0;whiteSpace=wrap;html=1;fontFamily=Courier New;" vertex="1" parent="1">
          <mxGeometry x="170" y="330" width="70" height="20" as="geometry" />
        </mxCell>
        <mxCell id="2d9SfI0o8_fkQWdDgzP_-8" value="r7" style="rounded=0;whiteSpace=wrap;html=1;fontFamily=Courier New;" vertex="1" parent="1">
          <mxGeometry x="170" y="350" width="70" height="20" as="geometry" />
        </mxCell>
        <mxCell id="2d9SfI0o8_fkQWdDgzP_-9" value="r8" style="rounded=0;whiteSpace=wrap;html=1;fontFamily=Courier New;" vertex="1" parent="1">
          <mxGeometry x="170" y="370" width="70" height="20" as="geometry" />
        </mxCell>
        <mxCell id="2d9SfI0o8_fkQWdDgzP_-10" value="r9" style="rounded=0;whiteSpace=wrap;html=1;fontFamily=Courier New;" vertex="1" parent="1">
          <mxGeometry x="170" y="390" width="70" height="20" as="geometry" />
        </mxCell>
        <mxCell id="2d9SfI0o8_fkQWdDgzP_-11" value="r10" style="rounded=0;whiteSpace=wrap;html=1;fontFamily=Courier New;" vertex="1" parent="1">
          <mxGeometry x="170" y="410" width="70" height="20" as="geometry" />
        </mxCell>
        <mxCell id="2d9SfI0o8_fkQWdDgzP_-12" value="r11" style="rounded=0;whiteSpace=wrap;html=1;fontFamily=Courier New;" vertex="1" parent="1">
          <mxGeometry x="170" y="430" width="70" height="20" as="geometry" />
        </mxCell>
        <mxCell id="2d9SfI0o8_fkQWdDgzP_-13" value="r12" style="rounded=0;whiteSpace=wrap;html=1;fontFamily=Courier New;" vertex="1" parent="1">
          <mxGeometry x="170" y="450" width="70" height="20" as="geometry" />
        </mxCell>
        <mxCell id="2d9SfI0o8_fkQWdDgzP_-14" value="r13(SP)" style="rounded=0;whiteSpace=wrap;html=1;fontFamily=Courier New;" vertex="1" parent="1">
          <mxGeometry x="170" y="470" width="70" height="20" as="geometry" />
        </mxCell>
        <mxCell id="2d9SfI0o8_fkQWdDgzP_-15" value="r14(LR)" style="rounded=0;whiteSpace=wrap;html=1;fontFamily=Courier New;" vertex="1" parent="1">
          <mxGeometry x="170" y="490" width="70" height="20" as="geometry" />
        </mxCell>
        <mxCell id="2d9SfI0o8_fkQWdDgzP_-16" value="r15(PC)" style="rounded=0;whiteSpace=wrap;html=1;fontFamily=Courier New;" vertex="1" parent="1">
          <mxGeometry x="170" y="510" width="70" height="20" as="geometry" />
        </mxCell>
        <mxCell id="2d9SfI0o8_fkQWdDgzP_-33" value="CPSR" style="rounded=0;whiteSpace=wrap;html=1;fontFamily=Courier New;shadow=1;" vertex="1" parent="1">
          <mxGeometry x="170" y="550" width="70" height="20" as="geometry" />
        </mxCell>
        <mxCell id="2d9SfI0o8_fkQWdDgzP_-42" value="r8" style="rounded=0;whiteSpace=wrap;html=1;fontFamily=Courier New;" vertex="1" parent="1">
          <mxGeometry x="260" y="370" width="70" height="20" as="geometry" />
        </mxCell>
        <mxCell id="2d9SfI0o8_fkQWdDgzP_-43" value="r9" style="rounded=0;whiteSpace=wrap;html=1;fontFamily=Courier New;" vertex="1" parent="1">
          <mxGeometry x="260" y="390" width="70" height="20" as="geometry" />
        </mxCell>
        <mxCell id="2d9SfI0o8_fkQWdDgzP_-44" value="r10" style="rounded=0;whiteSpace=wrap;html=1;fontFamily=Courier New;" vertex="1" parent="1">
          <mxGeometry x="260" y="410" width="70" height="20" as="geometry" />
        </mxCell>
        <mxCell id="2d9SfI0o8_fkQWdDgzP_-45" value="r11" style="rounded=0;whiteSpace=wrap;html=1;fontFamily=Courier New;" vertex="1" parent="1">
          <mxGeometry x="260" y="430" width="70" height="20" as="geometry" />
        </mxCell>
        <mxCell id="2d9SfI0o8_fkQWdDgzP_-46" value="r12" style="rounded=0;whiteSpace=wrap;html=1;fontFamily=Courier New;" vertex="1" parent="1">
          <mxGeometry x="260" y="450" width="70" height="20" as="geometry" />
        </mxCell>
        <mxCell id="2d9SfI0o8_fkQWdDgzP_-47" value="r13(SP)" style="rounded=0;whiteSpace=wrap;html=1;fontFamily=Courier New;" vertex="1" parent="1">
          <mxGeometry x="260" y="470" width="70" height="20" as="geometry" />
        </mxCell>
        <mxCell id="2d9SfI0o8_fkQWdDgzP_-48" value="r14(LR)" style="rounded=0;whiteSpace=wrap;html=1;fontFamily=Courier New;" vertex="1" parent="1">
          <mxGeometry x="260" y="490" width="70" height="20" as="geometry" />
        </mxCell>
        <mxCell id="2d9SfI0o8_fkQWdDgzP_-50" value="CPSR" style="rounded=0;whiteSpace=wrap;html=1;fontFamily=Courier New;" vertex="1" parent="1">
          <mxGeometry x="260" y="550" width="70" height="20" as="geometry" />
        </mxCell>
        <mxCell id="2d9SfI0o8_fkQWdDgzP_-51" value="SPSR_fiq" style="rounded=0;whiteSpace=wrap;html=1;fontFamily=Courier New;" vertex="1" parent="1">
          <mxGeometry x="260" y="570" width="70" height="20" as="geometry" />
        </mxCell>
        <mxCell id="2d9SfI0o8_fkQWdDgzP_-52" value="r13(SP)" style="rounded=0;whiteSpace=wrap;html=1;fontFamily=Courier New;" vertex="1" parent="1">
          <mxGeometry x="350" y="470" width="70" height="20" as="geometry" />
        </mxCell>
        <mxCell id="2d9SfI0o8_fkQWdDgzP_-53" value="r14(LR)" style="rounded=0;whiteSpace=wrap;html=1;fontFamily=Courier New;" vertex="1" parent="1">
          <mxGeometry x="350" y="490" width="70" height="20" as="geometry" />
        </mxCell>
        <mxCell id="2d9SfI0o8_fkQWdDgzP_-54" value="CPSR" style="rounded=0;whiteSpace=wrap;html=1;fontFamily=Courier New;" vertex="1" parent="1">
          <mxGeometry x="350" y="550" width="70" height="20" as="geometry" />
        </mxCell>
        <mxCell id="2d9SfI0o8_fkQWdDgzP_-55" value="SPSR_svc" style="rounded=0;whiteSpace=wrap;html=1;fontFamily=Courier New;" vertex="1" parent="1">
          <mxGeometry x="350" y="570" width="70" height="20" as="geometry" />
        </mxCell>
        <mxCell id="2d9SfI0o8_fkQWdDgzP_-56" value="r13(SP)" style="rounded=0;whiteSpace=wrap;html=1;fontFamily=Courier New;" vertex="1" parent="1">
          <mxGeometry x="440" y="470" width="70" height="20" as="geometry" />
        </mxCell>
        <mxCell id="2d9SfI0o8_fkQWdDgzP_-57" value="r14(LR)" style="rounded=0;whiteSpace=wrap;html=1;fontFamily=Courier New;" vertex="1" parent="1">
          <mxGeometry x="440" y="490" width="70" height="20" as="geometry" />
        </mxCell>
        <mxCell id="2d9SfI0o8_fkQWdDgzP_-58" value="CPSR" style="rounded=0;whiteSpace=wrap;html=1;fontFamily=Courier New;" vertex="1" parent="1">
          <mxGeometry x="440" y="550" width="70" height="20" as="geometry" />
        </mxCell>
        <mxCell id="2d9SfI0o8_fkQWdDgzP_-59" value="SPSR_abt" style="rounded=0;whiteSpace=wrap;html=1;fontFamily=Courier New;" vertex="1" parent="1">
          <mxGeometry x="440" y="570" width="70" height="20" as="geometry" />
        </mxCell>
        <mxCell id="2d9SfI0o8_fkQWdDgzP_-60" value="r13(SP)" style="rounded=0;whiteSpace=wrap;html=1;fontFamily=Courier New;" vertex="1" parent="1">
          <mxGeometry x="530" y="470" width="70" height="20" as="geometry" />
        </mxCell>
        <mxCell id="2d9SfI0o8_fkQWdDgzP_-61" value="r14(LR)" style="rounded=0;whiteSpace=wrap;html=1;fontFamily=Courier New;" vertex="1" parent="1">
          <mxGeometry x="530" y="490" width="70" height="20" as="geometry" />
        </mxCell>
        <mxCell id="2d9SfI0o8_fkQWdDgzP_-62" value="CPSR" style="rounded=0;whiteSpace=wrap;html=1;fontFamily=Courier New;" vertex="1" parent="1">
          <mxGeometry x="530" y="550" width="70" height="20" as="geometry" />
        </mxCell>
        <mxCell id="2d9SfI0o8_fkQWdDgzP_-63" value="SPSR_irq" style="rounded=0;whiteSpace=wrap;html=1;fontFamily=Courier New;" vertex="1" parent="1">
          <mxGeometry x="530" y="570" width="70" height="20" as="geometry" />
        </mxCell>
        <mxCell id="2d9SfI0o8_fkQWdDgzP_-64" value="r13(SP)" style="rounded=0;whiteSpace=wrap;html=1;fontFamily=Courier New;" vertex="1" parent="1">
          <mxGeometry x="620" y="470" width="70" height="20" as="geometry" />
        </mxCell>
        <mxCell id="2d9SfI0o8_fkQWdDgzP_-65" value="r14(LR)" style="rounded=0;whiteSpace=wrap;html=1;fontFamily=Courier New;" vertex="1" parent="1">
          <mxGeometry x="620" y="490" width="70" height="20" as="geometry" />
        </mxCell>
        <mxCell id="2d9SfI0o8_fkQWdDgzP_-66" value="CPSR" style="rounded=0;whiteSpace=wrap;html=1;fontFamily=Courier New;" vertex="1" parent="1">
          <mxGeometry x="620" y="550" width="70" height="20" as="geometry" />
        </mxCell>
        <mxCell id="2d9SfI0o8_fkQWdDgzP_-67" value="SPSR_und" style="rounded=0;whiteSpace=wrap;html=1;fontFamily=Courier New;" vertex="1" parent="1">
          <mxGeometry x="620" y="570" width="70" height="20" as="geometry" />
        </mxCell>
        <mxCell id="2d9SfI0o8_fkQWdDgzP_-69" value="User/System" style="text;html=1;strokeColor=none;fillColor=none;align=center;verticalAlign=middle;whiteSpace=wrap;rounded=0;fontFamily=Computer Modern;fontStyle=2" vertex="1" parent="1">
          <mxGeometry x="162.5" y="180" width="85" height="30" as="geometry" />
        </mxCell>
        <mxCell id="2d9SfI0o8_fkQWdDgzP_-70" value="FIQ" style="text;html=1;strokeColor=none;fillColor=none;align=center;verticalAlign=middle;whiteSpace=wrap;rounded=0;fontFamily=Computer Modern;fontStyle=2" vertex="1" parent="1">
          <mxGeometry x="252.5" y="340" width="85" height="30" as="geometry" />
        </mxCell>
        <mxCell id="2d9SfI0o8_fkQWdDgzP_-71" value="Supervisor" style="text;html=1;strokeColor=none;fillColor=none;align=center;verticalAlign=middle;whiteSpace=wrap;rounded=0;fontFamily=Computer Modern;fontStyle=2" vertex="1" parent="1">
          <mxGeometry x="342.5" y="440" width="85" height="30" as="geometry" />
        </mxCell>
        <mxCell id="2d9SfI0o8_fkQWdDgzP_-72" value="Abort" style="text;html=1;strokeColor=none;fillColor=none;align=center;verticalAlign=middle;whiteSpace=wrap;rounded=0;fontFamily=Computer Modern;fontStyle=2" vertex="1" parent="1">
          <mxGeometry x="432.5" y="440" width="85" height="30" as="geometry" />
        </mxCell>
        <mxCell id="2d9SfI0o8_fkQWdDgzP_-73" value="IRQ" style="text;html=1;strokeColor=none;fillColor=none;align=center;verticalAlign=middle;whiteSpace=wrap;rounded=0;fontFamily=Computer Modern;fontStyle=2" vertex="1" parent="1">
          <mxGeometry x="522.5" y="440" width="85" height="30" as="geometry" />
        </mxCell>
        <mxCell id="2d9SfI0o8_fkQWdDgzP_-74" value="Undefined" style="text;html=1;strokeColor=none;fillColor=none;align=center;verticalAlign=middle;whiteSpace=wrap;rounded=0;fontFamily=Computer Modern;fontStyle=2" vertex="1" parent="1">
          <mxGeometry x="612.5" y="440" width="85" height="30" as="geometry" />
        </mxCell>
      </root>
    </mxGraphModel>
  </diagram>
</mxfile>
